<?xml version="1.0" encoding="UTF-8"?>
<svg id="Layer_2" xmlns="http://www.w3.org/2000/svg" version="1.1" viewBox="0 0 375.4 375.4">
  <!-- Generator: Adobe Illustrator 29.0.1, SVG Export Plug-In . SVG Version: 2.1.0 Build 192)  -->
  <defs>
    <style>
      .st0 {
        fill: #014466;
      }
    </style>
  </defs>
  <g id="Layer_5">
    <g>
      <path class="st0" d="M194.4,0l17.9,3c20.8,5.1,38.9,16.8,53.2,32.5,36.9-6.2,74.3,9.8,94.6,41.1,30.8,47.3,13.5,109.5-36,135.1v70.3c-.4,6.1-5.8,8.5-11.3,8.5H62.8c-5.7,0-10.6-2.3-11.3-8.5v-70.3c-24.2-12.3-42.6-35.5-48.7-62.1-1.1-4.6-1.5-9.3-2.6-13.9.3-5.2-.4-10.9,0-16.1,2.5-29.6,21.5-58.3,47.2-72.7,7.9-4.5,36.5-19.1,34.2.5-.4,3.1-3.9,8.9-5.2,12.4-3.4,9.5-6.2,19.3-7.3,29.4-.8,7.2-3.2,21.6,7.7,21.7s8.3-11.9,9.2-18.8C92.2,42.8,130.1,3.8,180.5,0h13.9,0ZM91.6,171c-3.3.8-5.9,5.2-6.1,8.4-.8,14.1,17.3,45.9,27.2,56,7.7,7.8,17.8,1.3,14.5-8.6-1-3.1-7.5-10.2-9.7-13.8-4.5-7-10.2-16-12.8-23.9-2.4-7.2-1.5-20.8-13.1-18.1h0ZM185.4,171c-3.8.9-5.9,5.6-6.3,9.1-1.3,11.3-1.1,36.8-.1,48.3,1.2,14,16.1,13.6,17.5,1.4,1.3-11.2,1.1-36.8.1-48.3-.6-6.5-3.8-12.2-11.2-10.4ZM279.2,171c-6.6,1.5-6.4,12.6-8.2,18.1-4.5,13.8-15,26.1-22.7,38.1-2.4,9.9,7.1,15.7,14.7,8.1,9.9-9.8,28.5-42.7,27.1-56.5-.5-5.5-5.4-9.1-10.9-7.9h0Z"/>
      <path class="st0" d="M53.9,309.7c.9-.9,2.4-1.4,3.5-2l259.7-.5c3.5.7,6.4,3.3,7,7,.9,6.1.6,23.5,0,29.9-1.7,16.8-15.3,29.5-31.9,31.2H84.1c-32-3.3-35.7-32.9-32.6-59.7.2-1.9,1.1-4.6,2.5-6h0Z"/>
    </g>
  </g>
</svg>