<?xml version="1.0" encoding="UTF-8"?>
<svg id="Layer_2" xmlns="http://www.w3.org/2000/svg" version="1.1" viewBox="0 0 347 292">
  <!-- Generator: Adobe Illustrator 29.0.1, SVG Export Plug-In . SVG Version: 2.1.0 Build 192)  -->
  <defs>
    <style>
      .st0 {
        fill: #014466;
      }
    </style>
  </defs>
  <g id="Layer_5">
    <g>
      <path class="st0" d="M330.8,154.4l-22.6,122.2c-3,8.4-10.7,14.9-19.8,15.4H57.9c-8.2-.8-14.7-6.1-18.2-13.3l-23.5-124.3c-23.3-3.4-20.6-34.8,2.8-35.4h309.2c23.3.5,26.1,32.1,2.7,35.3h0ZM59.5,185.1c-7,1.6-4.8,10-4,14.9,2.8,18.8,7.4,37.4,10.5,56.2,3,9.6,15.4,6.5,14.7-3.4-1.4-19.7-9.6-42.5-11.5-62.6-1.4-4.5-4.9-6.1-9.6-5.1h0ZM96.9,185.1c-2.9.7-5.5,4.1-5.5,7.1l7.3,61.9c1.5,10.2,14.1,10.7,15.5,0-3.9-19.7-3.6-41.8-7.4-61.3-1.1-5.3-3.8-9.2-9.8-7.8h0ZM133.6,185.1c-2.9.8-5.2,4.7-5.1,7.7,2.6,20.1,1.6,41.4,3.8,61.4,1.2,10.3,14,9.9,15,1.5,1.2-10.6-1.5-27.8-2.2-38.9-.5-6.7-.1-14.3-.8-20.9s-2.6-12.8-10.7-10.7h0ZM179.3,259.6c1.2-1.4,1.6-3.6,1.8-5.4,1.8-20.2-1.4-43.2,0-63.6-1.2-7.4-13.8-8.6-14.9,1.5-2.2,19.7,1.6,43.4,0,63.6,1.4,6,8.9,8.8,13.2,3.9h0ZM208.5,185.1c-2.3.5-4.7,3.2-4.9,5.5-.8,18.2-3.3,37.1-3.8,55.3-.1,4.6-1.2,11.7,2.8,14.5,5,3.5,10.8.7,12.1-4.9,0-20.3,4-41.9,4-61.9,0-6.1-3.7-9.9-10-8.4h0ZM253.4,186.7c-4.6-4.3-12.9-.8-13.1,5.6l-7.4,62.6c1.8,9.7,13.6,9.5,15.3,0l7.6-62c0-1.7-1.2-4.9-2.4-6h0ZM282.6,185.1c-2.6.6-4.1,3.3-4.8,5.6-5.5,19.2-6,43.1-11.4,62.7-.3,8.8,11.6,12.7,15,2.2,5.9-18.3,6.1-42.4,11.3-61.4,1-6.4-3.5-10.6-9.9-9.2h0Z"/>
      <path class="st0" d="M32.8,104.1c-.9-11.3-2.3-24.6,5.3-34,2.2-2.7,5.3-4.5,7.5-7.1-13.6-4-23.9-14.4-30.8-26.5-1.8-3.1-8.9-14.4-3.2-15.5,9-1.7,22,3,31,4.5.2-4.7,1.5-10.1,3-14.6.7-2,2.8-8.5,4.9-8.6,4.2-.4,14.4,14.2,16.5,18,2.1.4,4.6-3.5,6.4-4.8,3.1-2.4,7-4.9,10.4-6.8,11.9-6.5,14.5-8,13.5,7.5-1,15.3-7.4,30.4-18.7,40.8,21.8,2,27.9,29.3,30.7,47.2,0,0-76.3,0-76.3,0Z"/>
      <path class="st0" d="M219.9,104.1h-92.8c1.1-10,.6-21.8,2.4-31.6,1.9-10.3,10.4-17.8,21.1-17.8,16.6,0,35.5,4.6,52.3,4.6,6.6.9,12.9,5,16,10.9,5.4,10.1.1,23,.9,33.9h0Z"/>
      <path class="st0" d="M236.4,104.1l9.4-6c13.5-11.4,10.5-30.7,13.9-46.4l34.3,4.6c1,1.6-3.8,27.5-3.7,32.5.1,5.8,2.5,10.2,4.5,15.3h-58.4,0Z"/>
      <path class="st0" d="M263.1.2c1.4-.3,2.9-.2,4.3-.2,8.2.4,21.5,2.4,29.9,3.8,5.9,1.1,10.5,2,10.2,9.2-.2,4.4-1.9,18.4-3.1,22.4s-4.4,5.9-8.5,5.7c-11.1-.4-23.7-4.3-35-4.7-3.3-1.3-5.9-4.1-5.9-7.7s2-19.8,3.2-23.8c.6-2.1,2.6-4.4,4.8-4.9h0Z"/>
      <path class="st0" d="M205,44.2l-49.4-4.1c-1.1-.8-.8-5.3-.7-6.8.2-4.8.8-12.6,1.6-17.1,1.5-8.9,9.9-8.2,16.8-7.9s18.9,1.1,25.4,2.3c13.9,2.6,5.5,24,6.4,33.6h0Z"/>
    </g>
  </g>
</svg>