<?xml version="1.0" encoding="UTF-8"?>
<svg id="Layer_2" data-name="Layer 2" xmlns="http://www.w3.org/2000/svg" viewBox="0 0 1495.33 950.43">
  <defs>
    <style>
      .cls-1 {
        fill: #06689d;
      }
    </style>
  </defs>
  <g id="Layer_1-2" data-name="Layer 1">
    <path class="cls-1" d="M1495.33,834.33c-105.3,82.79-227.98,125.11-362.2,114.18-188.85-15.38-360.52-110.4-536.37-172.58-89.2-31.55-182.41-57.17-277.68-57.7C200.17,717.58,92.76,761.4,0,834.33,0,594.92,0,355.51,0,116.11,92.76,43.18,200.17-.64,319.08,0c95.28.52,188.48,26.15,277.68,57.7,175.85,62.19,347.51,157.2,536.37,172.59,134.22,10.93,256.9-31.39,362.2-114.18,0,239.41,0,478.81,0,718.22Z"/>
  </g>
</svg>