<?xml version="1.0" encoding="UTF-8"?>
<svg id="Layer_2" xmlns="http://www.w3.org/2000/svg" version="1.1" viewBox="0 0 377.2 329.8">
  <!-- Generator: Adobe Illustrator 29.0.1, SVG Export Plug-In . SVG Version: 2.1.0 Build 192)  -->
  <defs>
    <style>
      .st0 {
        fill: #014466;
      }
    </style>
  </defs>
  <g id="Layer_5">
    <g>
      <path class="st0" d="M260.5,45.5v16.5c24.9,2.4,48.2,13.9,67.8,29,5.8-4.8,14.6-19,22.8-9.7,9,10.1-10.2,18.7-9.6,22.1,42.2,46.4,47.9,115.4,12.5,167.7-51.6,76.1-163.8,78.8-219.1,5.2-39.3-52.3-35.1-124.8,8.8-172.9.5-3.4-18.7-12-9.6-22.1,8.3-9.3,17,5,22.8,9.7,19.6-15.1,42.8-26.5,67.8-29v-16.5h35.9ZM234.1,84.7c-83.6,6.2-130.5,100.9-84.3,171.4,45.8,69.9,151,65.3,190.4-8.4,41.2-77.2-19.2-169.4-106.1-163h0Z"/>
      <path class="st0" d="M210.9.8c19.6,1.1,41.9-2,61.2-.2,4.8.4,8.5,3,9.3,8,.5,3.8.5,20-.9,23-1.2,2.6-4.8,5-7.7,5-19.4-1.2-40.8,1.7-59.9,0-4.4-.4-8.3-2.8-9.1-7.3-.7-3.9-.6-15.9-.2-20s3.1-7.4,7.3-8.4h0Z"/>
      <path class="st0" d="M7.2,168.5h80.6c10.8,1.9,10.4,16.5-.7,17.8H7.9c-10.2-2.2-10.6-15-.6-17.8h0Z"/>
      <path class="st0" d="M37.2,132.5h62.6c10.4,1.5,10.5,16.2,0,17.7-18.6,2.6-42.8-1.8-62,0-10.2-2.1-10.6-14.9-.6-17.7Z"/>
      <path class="st0" d="M25.2,204.4h62.6c10.4,1.5,10.5,16.2,0,17.7-18.6,2.6-42.8-1.8-62,0-10.2-2.1-10.6-14.9-.6-17.7Z"/>
      <path class="st0" d="M49.2,240.3c6-1.1,39.3-1.1,45.3,0,9.7,1.8,9.6,16.3-.6,17.7-7.1,1-38,1.1-44.7-.1-9.5-1.7-9.5-15.9,0-17.6h0Z"/>
      <path class="st0" d="M242.5,93.4v101.8h101.8c0,34.9-18.1,67.6-47.5,86.1-54.1,34.2-126.4,10.1-149.2-49.2-25.8-67.2,23.6-138.4,94.9-138.7h0Z"/>
    </g>
  </g>
</svg>